<?xml version="1.0" encoding="UTF-8"?>
<svg version="1.1" viewBox="0 0 1600 1600" xmlns="http://www.w3.org/2000/svg">
<path transform="translate(0)" d="m0 0h1600v1600h-1600v-1600z" fill="#000002"/>
<path transform="translate(249 642)" d="m0 0c0.728 0.0049 1.46 0.0098 2.21 0.0148 0.775-0.00268 1.55-0.00536 2.35-0.00812 2.63-0.00661 5.26 0.00119 7.89 0.00878 1.9-0.00178 3.8-0.00444 5.7-0.0079 5.26-0.00701 10.5-0.00143 15.8 0.00606 5.71 0.00594 11.4 3.49e-4 17.1-0.00382 10-0.0057 20-0.00391 30.1 0.00269 10.8 0.00707 21.5 0.00991 32.3 0.00736 0.678-1.58e-4 1.36-3.16e-4 2.06-4.78e-4 3.46-8.24e-4 6.92-0.00172 10.4-0.00263 25.1-0.00648 50.1-0.00311 75.2 0.00559 24.8 0.00861 49.6 0.0135 74.5 0.0133 1.56-7.92e-6 3.11-1.56e-5 4.67-2.32e-5 6.26-3.74e-5 12.5-1.04e-4 18.8-2.06e-4 17.5-2.78e-4 35 1.11e-4 52.5 9.89e-4 0.797 3.97e-5 1.59 7.94e-5 2.41 1.2e-4 25.4 0.00131 50.8 0.00548 76.2 0.0117 0.824 2.03e-4 1.65 4.06e-4 2.5 6.15e-4 13.4 0.00331 26.8 0.0068 40.1 0.0103 53.1 0.0139 106 0.0205 159 0.0198 1.68-2.04e-5 3.36-4.06e-5 5.03-6.06e-5 3.35-4.02e-5 6.7-8.1e-5 10.1-1.22e-4 7.51-9.14e-5 15-1.76e-4 22.5-2.47e-4 1.66-1.58e-5 3.33-3.22e-5 4.99-4.93e-5 44.4-4.45e-4 88.8 0.00402 133 0.0104 0.775 1.1e-4 1.55 2.2e-4 2.35 3.34e-4 14.1 0.00201 14.1 0.00201 21 0.00302 17.1 0.0025 34.1 0.00444 51.2 0.00481 0.77 1.75e-5 1.54 3.51e-5 2.33 5.31e-5 3.1 6.92e-5 6.21 1.34e-4 9.31 1.97e-4 28.8 5.85e-4 57.5 0.00434 86.3 0.0145 2.75 9.58e-4 5.51 0.0019 8.26 0.00283 1.01 3.46e-4 1.01 3.46e-4 2.05 6.99e-4 11.4 0.00379 22.8 0.00364 34.1 0.00247 9.88-7.31e-4 19.8 0.00214 29.6 0.00804 5.64 0.00327 11.3 0.00491 16.9 0.00224 5.12-0.00239 10.2-2.78e-4 15.4 0.00562 1.85 0.00131 3.7 9.08e-4 5.56-0.00132 2.49-0.00276 4.99 5.17e-4 7.48 0.00544 0.73-0.00227 1.46-0.00455 2.21-0.00689 4.92 0.0192 4.92 0.0192 6.04 1.13 0.0972 1.65 0.124 3.3 0.123 4.95 0.00199 1.08 0.00398 2.16 0.00603 3.27-0.00291 1.2-0.00583 2.4-0.00883 3.63 8.54e-4 1.26 0.00171 2.53 0.00259 3.83 0.00225 3.52-0.00178 7.04-0.00678 10.6-0.0043 3.79-0.00286 7.58-0.0021 11.4 5.25e-4 6.57-0.00262 13.1-0.00824 19.7-0.00811 9.5-0.0107 19-0.012 28.5-0.00219 15.4-0.00885 30.8-0.0183 46.3-0.00917 15-0.0163 30-0.0205 44.9-2.63e-4 0.923-5.25e-4 1.85-7.96e-4 2.8-0.0013 4.63-0.00257 9.26-0.00381 13.9-0.0104 38.4-0.028 76.9-0.0503 115-34.1 0.0055-68.2 0.0108-102 0.0159-1 1.5e-4 -1 1.5e-4 -2.02 3.02e-4 -71.4 0.0107-143 0.0199-214 0.0262-1.59 1.39e-4 -3.17 2.79e-4 -4.76 4.18e-4 -33.3 0.00292-66.6 0.00564-99.9 0.00812-16.7 0.00125-33.4 0.00253-50.2 0.00385-2.52 1.99e-4 -5.05 3.97e-4 -7.57 5.95e-4 -38.9 0.00306-77.7 0.00697-117 0.0133-1.25 2.05e-4 -1.25 2.05e-4 -2.53 4.15e-4 -13.5 0.00221-27 0.0045-40.4 0.00679-38.8 0.0066-77.6 0.0127-116 0.0153-1.2 8.03e-5 -1.2 8.03e-5 -2.42 1.62e-4 -17.5 0.00117-35 0.00206-52.5 0.0027-7.04 2.62e-4 -14.1 5.62e-4 -21.1 8.76e-4 -1.16 5.02e-5 -1.16 5.02e-5 -2.34 1.01e-4 -24.9 0.0011-49.7 0.00537-74.6 0.0113-25 0.00596-50.1 0.00882-75.1 0.00734-3.45-2.03e-4 -6.91-3.7e-4 -10.4-5.16e-4 -0.677-2.99e-5 -1.35-5.98e-5 -2.05-9.05e-5 -11.4-4.05e-4 -22.8 0.00317-34.2 0.00778-9.9 0.00373-19.8 0.00388-29.7 0.00103-5.65-0.00152-11.3-0.0014-17 0.00305-5.13 0.00401-10.3 0.00352-15.4-7.43e-4 -1.86-7.21e-4 -3.71 2.77e-4 -5.57 0.0031-2.5 0.00356-5 0.00108-7.5-0.00304-0.732 0.00251-1.46 0.00502-2.22 0.0076-4.94-0.0176-4.94-0.0176-6.05-1.13-0.0989-1.63-0.127-3.27-0.129-4.91-0.00322-1.07-0.00645-2.14-0.00977-3.24 0.00232-1.79 0.00232-1.79 0.00469-3.61-0.00227-1.25-0.00453-2.51-0.00687-3.8-0.00615-3.49-0.00598-6.99-0.00481-10.5 2.03e-4 -3.76-0.00531-7.52-0.0101-11.3-0.00832-7.38-0.0111-14.8-0.0116-22.1-4.74e-4 -5.99-0.00253-12-0.0057-18-0.00881-17-0.0134-33.9-0.0127-50.9 4e-5 -0.916 7.99e-5 -1.83 1.21e-4 -2.78 4.09e-5 -0.917 8.18e-5 -1.83 1.24e-4 -2.78 4.07e-4 -14.9-0.00917-29.7-0.0233-44.6-0.0143-15.2-0.0213-30.5-0.0204-45.7 3.33e-4 -8.57-0.00245-17.1-0.0132-25.7-0.00908-7.29-0.0113-14.6-0.00449-21.9 0.00328-3.72 0.00327-7.45-0.00535-11.2-0.00924-4.03-0.00312-8.06 0.00463-12.1-0.00514-1.19-0.0103-2.38-0.0156-3.6 0.0046-1.07 0.0092-2.15 0.0139-3.25-2.17e-4 -0.931-4.35e-4 -1.86-6.59e-4 -2.82 0.526-4.67 3.39-4.45 7.42-4.48z" fill="#000002"/>
<path transform="translate(338 674)" d="m0 0c5.42 0.00229 10.8-0.00124 16.3-0.00398 10.6-0.00442 21.2-0.0035 31.8-5.87e-4 8.63 0.00227 17.3 0.00256 25.9 0.00148 1.23-1.53e-4 2.47-3.06e-4 3.74-4.64e-4 2.51-3.2e-4 5.02-6.44e-4 7.53-9.73e-4 22.8-0.00276 45.6 9.04e-5 68.4 0.00534 20.7 0.00473 41.4 0.00431 62.1-4.61e-4 23.4-0.00538 46.8-0.00744 70.1-0.00439 2.51 3.18e-4 5.01 6.33e-4 7.52 9.43e-4 1.85 2.31e-4 1.85 2.31e-4 3.73 4.68e-4 8.59 8.55e-4 17.2-5.75e-4 25.8-0.00295 10.5-0.00284 21-0.00197 31.5 0.00328 5.34 0.00258 10.7 0.00374 16 3.51e-4 20.9-0.012 41.8 0.077 62.7 0.46 2.06 0.0371 4.13 0.0711 6.19 0.102 2.84 0.0439 5.69 0.101 8.53 0.161 1.27 0.0167 1.27 0.0167 2.57 0.0338 5.83 0.147 5.83 0.147 8.06 2.38 0.248 1.83 0.248 1.83 0.246 4.09 0.00398 0.861 0.00796 1.72 0.0121 2.61-0.00583 0.951-0.0117 1.9-0.0177 2.88 0.00256 1.51 0.00256 1.51 0.00518 3.05 0.00331 3.39-0.00774 6.79-0.0186 10.2-5.64e-4 2.42-2.48e-4 4.85 8.85e-4 7.27 4.56e-4 5.23-0.00524 10.5-0.0165 15.7-0.0162 7.56-0.0215 15.1-0.024 22.7-0.00438 12.3-0.0177 24.5-0.0366 36.8-0.0184 11.9-0.0325 23.8-0.041 35.8-7.88e-4 1.1-7.88e-4 1.1-0.00159 2.23-0.00261 3.68-0.00514 7.37-0.00762 11.1-0.0207 30.6-0.0561 61.1-0.101 91.7-3.25 1.62-6.82 1.14-10.4 1.13-0.883 0.00145-1.77 0.00291-2.68 0.0044-2.99 0.00368-5.98 1.64e-4 -8.98-0.00326-2.15 0.00115-4.31 0.00274-6.46 0.00473-5.94 0.0042-11.9 0.0021-17.8-9.86e-4 -6.4-0.00225-12.8 0.00122-19.2 0.00398-11.8 0.0042-23.6 0.00382-35.5 0.00109-10.9-0.00251-21.8-0.00317-32.8-0.00198-1.08 1.15e-4 -1.08 1.15e-4 -2.19 2.31e-4 -2.94 3.11e-4 -5.87 6.3e-4 -8.81 9.6e-4 -27.6 0.00306-55.1 2.82e-4 -82.7-0.0051-24.5-0.00475-49-0.00432-73.5 4.61e-4 -27.5 0.00535-55 0.00748-82.5 0.00439-2.93-3.21e-4 -5.86-6.34e-4 -8.79-9.43e-4 -0.722-7.91e-5 -1.44-1.58e-4 -2.19-2.4e-4 -10.9-0.00114-21.8 1.96e-4 -32.7 0.00272-12.4 0.00285-24.8 0.00206-37.2-0.00328-6.34-0.00264-12.7-0.00364-19-3.51e-4 -5.79 0.00296-11.6 0.00137-17.4-0.00398-2.1-0.00112-4.21-5.33e-4 -6.31 0.00188-2.84 0.00301-5.68-4.3e-5 -8.53-0.00472-0.832 0.00234-1.66 0.00468-2.52 0.00709-5.64-0.0188-5.64-0.0188-7.87-1.13-0.0228-31.3-0.0405-62.6-0.0511-93.9-0.00125-3.69-0.00255-7.39-0.00387-11.1-2.62e-4 -0.735-5.25e-4 -1.47-7.95e-4 -2.23-0.00436-11.9-0.0122-23.8-0.0214-35.7-0.00934-12.2-0.0149-24.4-0.0169-36.7-0.00137-7.55-0.00572-15.1-0.0138-22.6-0.00589-5.78-0.00654-11.6-0.00519-17.3-2.76e-4 -2.38-0.00228-4.75-0.0061-7.13-0.00494-3.23-0.00379-6.46-0.00105-9.69-0.00291-0.951-0.00583-1.9-0.00883-2.88 0.00199-0.861 0.00398-1.72 0.00603-2.61-3.8e-4 -0.747-7.59e-4 -1.49-0.00115-2.26 0.124-1.83 0.124-1.83 1.12-3.83 22.2-1.17 44.3-1.14 66.5-1.13z" fill="#FC3431"/>
<path transform="translate(249 642)" d="m0 0c0.728 0.0049 1.46 0.0098 2.21 0.0148 0.775-0.00268 1.55-0.00536 2.35-0.00812 2.63-0.00661 5.26 0.00119 7.89 0.00878 1.9-0.00178 3.8-0.00444 5.7-0.0079 5.26-0.00701 10.5-0.00143 15.8 0.00606 5.71 0.00594 11.4 3.49e-4 17.1-0.00382 10-0.0057 20-0.00391 30.1 0.00269 10.8 0.00707 21.5 0.00991 32.3 0.00736 0.678-1.58e-4 1.36-3.16e-4 2.06-4.78e-4 3.46-8.24e-4 6.92-0.00172 10.4-0.00263 25.1-0.00648 50.1-0.00311 75.2 0.00559 24.8 0.00861 49.6 0.0135 74.5 0.0133 1.56-7.92e-6 3.11-1.56e-5 4.67-2.32e-5 6.26-3.74e-5 12.5-1.04e-4 18.8-2.06e-4 17.5-2.78e-4 35 1.11e-4 52.5 9.89e-4 0.797 3.97e-5 1.59 7.94e-5 2.41 1.2e-4 25.4 0.00131 50.8 0.00548 76.2 0.0117 0.824 2.03e-4 1.65 4.06e-4 2.5 6.15e-4 13.4 0.00331 26.8 0.0068 40.1 0.0103 53.1 0.0139 106 0.0205 159 0.0198 1.68-2.04e-5 3.36-4.06e-5 5.03-6.06e-5 3.35-4.02e-5 6.7-8.1e-5 10.1-1.22e-4 7.51-9.14e-5 15-1.76e-4 22.5-2.47e-4 1.66-1.58e-5 3.33-3.22e-5 4.99-4.93e-5 44.4-4.45e-4 88.8 0.00402 133 0.0104 0.775 1.1e-4 1.55 2.2e-4 2.35 3.34e-4 14.1 0.00201 14.1 0.00201 21 0.00302 17.1 0.0025 34.1 0.00444 51.2 0.00481 0.77 1.75e-5 1.54 3.51e-5 2.33 5.31e-5 3.1 6.92e-5 6.21 1.34e-4 9.31 1.97e-4 28.8 5.85e-4 57.5 0.00434 86.3 0.0145 2.75 9.58e-4 5.51 0.0019 8.26 0.00283 1.01 3.46e-4 1.01 3.46e-4 2.05 6.99e-4 11.4 0.00379 22.8 0.00364 34.1 0.00247 9.88-7.31e-4 19.8 0.00214 29.6 0.00804 5.64 0.00327 11.3 0.00491 16.9 0.00224 5.12-0.00239 10.2-2.78e-4 15.4 0.00562 1.85 0.00131 3.7 9.08e-4 5.56-0.00132 2.49-0.00276 4.99 5.17e-4 7.48 0.00544 0.73-0.00227 1.46-0.00455 2.21-0.00689 4.92 0.0192 4.92 0.0192 6.04 1.13 0.0972 1.65 0.124 3.3 0.123 4.95 0.00199 1.08 0.00398 2.16 0.00603 3.27-0.00291 1.2-0.00583 2.4-0.00883 3.63 8.54e-4 1.26 0.00171 2.53 0.00259 3.83 0.00225 3.52-0.00178 7.04-0.00678 10.6-0.0043 3.79-0.00286 7.58-0.0021 11.4 5.25e-4 6.57-0.00262 13.1-0.00824 19.7-0.00811 9.5-0.0107 19-0.012 28.5-0.00219 15.4-0.00885 30.8-0.0183 46.3-0.00917 15-0.0163 30-0.0205 44.9-2.63e-4 0.923-5.25e-4 1.85-7.96e-4 2.8-0.0013 4.63-0.00257 9.26-0.00381 13.9-0.0104 38.4-0.028 76.9-0.0503 115-34.1 0.0055-68.2 0.0108-102 0.0159-1 1.5e-4 -1 1.5e-4 -2.02 3.02e-4 -71.4 0.0107-143 0.0199-214 0.0262-1.59 1.39e-4 -3.17 2.79e-4 -4.76 4.18e-4 -33.3 0.00292-66.6 0.00564-99.9 0.00812-16.7 0.00125-33.4 0.00253-50.2 0.00385-2.52 1.99e-4 -5.05 3.97e-4 -7.57 5.95e-4 -38.9 0.00306-77.7 0.00697-117 0.0133-1.25 2.05e-4 -1.25 2.05e-4 -2.53 4.15e-4 -13.5 0.00221-27 0.0045-40.4 0.00679-38.8 0.0066-77.6 0.0127-116 0.0153-1.2 8.03e-5 -1.2 8.03e-5 -2.42 1.62e-4 -17.5 0.00117-35 0.00206-52.5 0.0027-7.04 2.62e-4 -14.1 5.62e-4 -21.1 8.76e-4 -1.16 5.02e-5 -1.16 5.02e-5 -2.34 1.01e-4 -24.9 0.0011-49.7 0.00537-74.6 0.0113-25 0.00596-50.1 0.00882-75.1 0.00734-3.45-2.03e-4 -6.91-3.7e-4 -10.4-5.16e-4 -0.677-2.99e-5 -1.35-5.98e-5 -2.05-9.05e-5 -11.4-4.05e-4 -22.8 0.00317-34.2 0.00778-9.9 0.00373-19.8 0.00388-29.7 0.00103-5.65-0.00152-11.3-0.0014-17 0.00305-5.13 0.00401-10.3 0.00352-15.4-7.43e-4 -1.86-7.21e-4 -3.71 2.77e-4 -5.57 0.0031-2.5 0.00356-5 0.00108-7.5-0.00304-0.732 0.00251-1.46 0.00502-2.22 0.0076-4.94-0.0176-4.94-0.0176-6.05-1.13-0.0989-1.63-0.127-3.27-0.129-4.91-0.00322-1.07-0.00645-2.14-0.00977-3.24 0.00232-1.79 0.00232-1.79 0.00469-3.61-0.00227-1.25-0.00453-2.51-0.00687-3.8-0.00615-3.49-0.00598-6.99-0.00481-10.5 2.03e-4 -3.76-0.00531-7.52-0.0101-11.3-0.00832-7.38-0.0111-14.8-0.0116-22.1-4.74e-4 -5.99-0.00253-12-0.0057-18-0.00881-17-0.0134-33.9-0.0127-50.9 4e-5 -0.916 7.99e-5 -1.83 1.21e-4 -2.78 4.09e-5 -0.917 8.18e-5 -1.83 1.24e-4 -2.78 4.07e-4 -14.9-0.00917-29.7-0.0233-44.6-0.0143-15.2-0.0213-30.5-0.0204-45.7 3.33e-4 -8.57-0.00245-17.1-0.0132-25.7-0.00908-7.29-0.0113-14.6-0.00449-21.9 0.00328-3.72 0.00327-7.45-0.00535-11.2-0.00924-4.03-0.00312-8.06 0.00463-12.1-0.00514-1.19-0.0103-2.38-0.0156-3.6 0.0046-1.07 0.0092-2.15 0.0139-3.25-2.17e-4 -0.931-4.35e-4 -1.86-6.59e-4 -2.82 0.526-4.67 3.39-4.45 7.42-4.48zm26.1 9.59c-1.97 0.0371-3.94 0.0711-5.91 0.102-2.71 0.0439-5.42 0.101-8.13 0.162-1.21 0.0167-1.21 0.0167-2.45 0.0338-4.36-0.0436-4.36-0.0436-7.78 2.38-0.302 2.18-0.302 2.18-0.249 4.74-0.0046 1.01-0.0092 2.01-0.0139 3.05 0.00514 1.11 0.0103 2.23 0.0156 3.38-0.00241 1.18-0.00483 2.35-0.00732 3.57-0.00468 3.28-3.28e-4 6.55 0.00776 9.83 0.00656 3.53 0.00163 7.06-0.00188 10.6-0.00505 6.92 6.09e-4 13.8 0.00985 20.8 0.0104 8.05 0.0103 16.1 0.00983 24.2-5.01e-4 14.4 0.00867 28.7 0.0232 43.1 0.0141 13.9 0.0212 27.9 0.0205 41.8-4e-5 0.859-7.99e-5 1.72-1.21e-4 2.6-4.04e-5 0.858-8.07e-5 1.72-1.22e-4 2.6-6.89e-4 15.9 0.0052 31.7 0.0142 47.6 0.00302 5.62 0.00408 11.2 0.00453 16.9 6.81e-4 6.84 0.00512 13.7 0.0143 20.5 0.00463 3.49 0.00766 6.99 0.00641 10.5-4.87e-4 3.78 0.00513 7.56 0.0124 11.3-0.00155 1.12-0.0031 2.23-0.00469 3.38 0.00322 1 0.00645 2.01 0.00977 3.04 7.04e-4 0.873 0.00141 1.75 0.00213 2.65-0.0909 1.97-0.0909 1.97 1.13 2.97 2.4 0.0992 4.76 0.133 7.16 0.124 0.763 0.00128 1.53 0.00256 2.31 0.00387 2.59 0.0031 5.19-0.00102 7.78-0.00502 1.87 7.39e-4 3.74 0.00192 5.62 0.0035 5.19 0.00309 10.4-1.24e-4 15.6-0.00428 5.63-0.00342 11.3-0.00107 16.9 5.77e-4 9.89 0.00208 19.8 4.19e-4 29.7-0.00364 10.6-0.00434 21.2-0.00657 31.8-0.0061 1 4.3e-5 1 4.3e-5 2.03 8.7e-5 3.41 1.56e-4 6.82 3.48e-4 10.2 5.53e-4 24.7 0.00141 49.4-0.00203 74.2-0.00802 24.5-0.00592 49-0.00977 73.5-0.0109 0.76-3.44e-5 1.52-6.88e-5 2.3-1.04e-4 6.94-3.13e-4 13.9-6.01e-4 20.8-8.58e-4 17.3-6.39e-4 34.5-0.0016 51.8-0.00278 0.786-5.33e-5 1.57-1.07e-4 2.38-1.62e-4 38.2-0.00262 76.5-0.00893 115-0.0155 13.3-0.00229 26.6-0.00457 39.8-0.00677 1.24-2.05e-4 1.24-2.05e-4 2.5-4.15e-4 38.3-0.00634 76.5-0.0101 115-0.0131 2.48-1.98e-4 4.97-3.97e-4 7.45-5.97e-4 16.5-0.00132 32.9-0.00259 49.4-0.00384 32.7-0.00248 65.5-0.00522 98.2-0.00814 1.56-1.39e-4 3.12-2.78e-4 4.68-4.17e-4 78.1-0.00695 156-0.0179 311-0.0421 0.0467-21.5 0.082-43 0.104-64.4 0.0103-9.97 0.0244-19.9 0.0473-29.9 0.0199-8.69 0.0328-17.4 0.0373-26.1 0.00261-4.6 0.00878-9.21 0.0233-13.8 0.0135-4.33 0.0178-8.66 0.0148-13 5.52e-4 -1.59 0.00456-3.18 0.0122-4.78 0.00989-2.17 0.00758-4.33 0.0021-6.5 0.00184-1.21 0.00369-2.43 0.00559-3.68 0.0469-2.96 0.0469-2.96-2.25-4.82-7.01-1.26-14-1.24-21 0-2.25 1.82-2.25 1.82-2.24 4.48 0.00444 1.04 0.00888 2.09 0.0135 3.16 1.51e-4 1.18 3.02e-4 2.36 4.58e-4 3.58 0.0103 1.28 0.0206 2.56 0.0313 3.88 0.00283 1.31 0.00566 2.61 0.00858 3.96 0.00764 3.48 0.0273 6.95 0.0494 10.4 0.0205 3.55 0.0296 7.09 0.0397 10.6 0.0215 6.96 0.0566 13.9 0.0977 20.9-7.59-0.33-15.2-0.66-23-1-0.0376-2.67-0.0376-2.67-0.0759-5.4-0.0838-5.88-0.172-11.8-0.263-17.6-0.0553-3.56-0.109-7.13-0.158-10.7-0.0567-4.09-0.121-8.19-0.186-12.3-0.0167-1.29-0.0334-2.57-0.0506-3.9-0.0199-1.18-0.0399-2.36-0.0604-3.58-0.0155-1.05-0.0311-2.09-0.0471-3.17 0.105-2.32 0.105-2.32-1.16-3.36-1.85-0.158-3.71-0.251-5.57-0.316-1.12-0.0419-2.25-0.0838-3.41-0.127-1.18-0.0393-2.37-0.0786-3.59-0.119-1.19-0.0432-2.38-0.0864-3.6-0.131-2.95-0.106-5.89-0.207-8.84-0.307l1-21c36.6-0.495 36.6-0.495 74-1 0.0291-17.9 0.0291-17.9 0.0488-35.9 0.00599-7.31 0.0131-14.6 0.0266-21.9 0.0108-5.89 0.0168-11.8 0.0194-17.7 0.00185-2.25 0.00548-4.5 0.0109-6.75 0.00721-3.14 0.00826-6.28 0.0078-9.43 0.0036-0.941 0.00719-1.88 0.0109-2.85 0.413-4.09 0.413-4.09-1.12-7.53-2.27-0.099-4.54-0.125-6.81-0.125-0.726-0.0014-1.45-0.0028-2.2-0.00425-2.47-0.00352-4.93 1.77e-4 -7.4 0.00376-1.78-0.00104-3.56-0.00252-5.34-0.0044-4.94-0.00393-9.88-0.00155-14.8 0.00178-5.36 0.00252-10.7-7.17e-4 -16.1-0.00324-9.4-0.00363-18.8-0.00349-28.2-9.53e-4 -14 0.00377-28 0.00186-42-0.00121-23.5-0.00497-47.1-0.00514-70.6-0.00242-1.08 1.24e-4 -1.08 1.24e-4 -2.17 2.51e-4 -0.719 8.29e-5 -1.44 1.66e-4 -2.18 2.51e-4 -21.9 0.00252-43.8 0.00318-65.7 0.00198-1.47-7.75e-5 -2.93-1.55e-4 -4.4-2.31e-4 -5.89-3.1e-4 -11.8-6.29e-4 -17.7-9.6e-4 -16.5-9.17e-4 -32.9-0.00149-49.4-0.00179-0.75-1.36e-5 -1.5-2.73e-5 -2.27-4.14e-5 -23.9-4.1e-4 -47.8 7.19e-4 -71.7 0.00289-0.776 7.02e-5 -1.55 1.4e-4 -2.35 2.13e-4 -12.6 0.00114-25.2 0.00236-37.8 0.00359-49.9 0.00485-99.8 0.00464-150-2.31e-4 -12.5-0.00122-25.1-0.00243-37.6-0.00357-0.773-7.04e-5 -1.55-1.41e-4 -2.34-2.13e-4 -23.9-0.00216-47.7-0.00307-71.6-0.00264-0.75 1.36e-5 -1.5 2.72e-5 -2.27 4.12e-5 -16.5 3.13e-4 -32.9 9.47e-4 -49.4 0.00187-5.9 3.29e-4 -11.8 6.42e-4 -17.7 9.51e-4 -1.47 7.74e-5 -2.93 1.56e-4 -4.4 2.36e-4 -21.9 0.00119-43.7 1.85e-4 -65.6-0.00235-0.714-8.28e-5 -1.43-1.66e-4 -2.16-2.51e-4 -0.713-8.27e-5 -1.43-1.65e-4 -2.16-2.51e-4 -24.2-0.00277-48.3-0.00171-72.5 0.00353-13.9 0.00292-27.8 0.00315-41.7-6.46e-4 -9.32-0.00227-18.6-8.06e-4 -28 0.0035-5.29 0.00235-10.6 0.00326-15.9-4.06e-4 -20.3-0.0129-40.5 0.0693-60.8 0.458z" fill="#FCFDFF"/>
<path transform="translate(831,753)" d="m0 0c3.43 2.28 4.96 5.49 7 9 1.94 2.82 3.94 5.59 5.94 8.38 1.04 1.48 2.08 2.95 3.12 4.43 0.5 0.711 1 1.42 1.52 2.16 1.28 1.83 2.56 3.67 3.84 5.51 0.69 0.978 1.38 1.96 2.09 2.96 0.882 1.27 0.882 1.27 1.78 2.56 1.78 2.08 3.2 2.99 5.72 4 0.272-0.575 0.544-1.15 0.824-1.74 1.19-2.28 2.5-4.29 3.99-6.38 0.611-0.864 1.22-1.73 1.85-2.62 3.55-4.96 7.13-9.9 10.7-14.8 2.37-3.26 4.71-6.52 6.89-9.91 1.73-2.52 1.73-2.52 3.73-3.52 2.88-0.0719 5.74-0.0929 8.62-0.0625 1.2 0.00677 1.2 0.00677 2.43 0.0137 1.98 0.0118 3.96 0.0297 5.95 0.0488 1.18 2.36 1.13 3.78 1.13 6.42 0.00311 0.922 0.00622 1.84 0.00943 2.79-0.00198 1.01-0.00397 2.01-0.00601 3.05 0.00198 1.57 0.00198 1.57 4e-3 3.17 0.00192 3.42-0.00443 6.84-0.0118 10.3-0.00133 1.73-0.00133 1.73-0.00269 3.49-0.0166 18.3-0.299 36.5-1.12 54.8-3.65 0.0289-7.29 0.0468-10.9 0.0625-1.04 0.00838-2.08 0.0168-3.15 0.0254-0.989 0.00322-1.98 0.00645-3 0.00977-1.37 0.00786-1.37 0.00786-2.78 0.0159-2.13-0.114-2.13-0.114-3.13-1.11-0.0886-2.74-0.115-5.45-0.0977-8.19 0.00141-0.82 0.00283-1.64 0.00429-2.48 0.00562-2.63 0.0182-5.26 0.0309-7.89 0.00501-1.78 0.00958-3.56 0.0137-5.33 0.011-4.37 0.0283-8.74 0.0488-13.1-3.55 1.18-3.89 1.98-5.81 5.06-0.802 1.21-0.802 1.21-1.62 2.44-1.58 2.43-1.58 2.43-2.73 4.88-1.42 2.56-2.41 3.96-4.84 5.62-2.82 0.508-5.18 0.779-8 0.812-0.689 0.0117-1.38 0.0234-2.09 0.0354-5.47-0.21-8.14-2.04-11.9-5.85-2.05-2.5-2.05-2.5-3.75-5-0.572-0.825-1.14-1.65-1.73-2.5-1.48-2.44-2.54-4.82-3.52-7.5h-2v40l-11.4 0.0625c-1.19 0.0091-2.38 0.0182-3.61 0.0276-1.4 0.00375-1.4 0.00375-2.82 0.00757-0.958 0.00524-1.92 0.0105-2.9 0.0159-2.22-0.114-2.22-0.114-3.22-1.11-0.16-2.17-0.252-4.34-0.316-6.52-0.0209-0.675-0.0417-1.35-0.0632-2.04-0.0667-2.23-0.125-4.46-0.183-6.69-0.0208-0.761-0.0417-1.52-0.0632-2.31-1.58-58-1.58-58 1.63-64.4 5.88-1.96 11.9-1.94 18-1z" fill="#FCFDFF"/>
<path transform="translate(1083 759)" d="m0 0c6.44 4.87 12.8 12.5 14.5 20.5 0.0838 0.857 0.168 1.71 0.254 2.6-3.98 0.00632-7.96-0.0537-11.9-0.125-1.12 0.00258-2.23 0.00516-3.38 0.00781-6.95-0.163-11.3-1.09-16.7-5.5-3.97-2.8-8.45-2.68-13.1-2.12-6 1.23-9.29 3.79-13 8.49-3.71 6.65-4.59 12.8-2.81 20.2 1.99 5.83 4.44 9.04 10 12 5.87 1.96 13.5 2.19 19.4 0.176 2.52-1.44 4.55-3.13 6.59-5.18-0.319-2.11-0.319-2.11-1-4-0.848 0.0157-0.848 0.0157-1.71 0.0317-2.55 0.0415-5.11 0.0676-7.66 0.0933-0.889 0.0168-1.78 0.0335-2.7 0.0508-1.28 0.00967-1.28 0.00967-2.58 0.0195-1.18 0.0157-1.18 0.0157-2.38 0.0317-1.97-0.227-1.97-0.227-3.97-2.23-0.266-2.97-0.266-2.97-0.25-6.5-0.00773-1.75-0.00773-1.75-0.0156-3.53 0.266-2.97 0.266-2.97 2.27-4.97 1.98-0.247 1.98-0.247 4.43-0.243 1.38-0.00461 1.38-0.00461 2.78-0.00932 0.993 0.00719 1.99 0.0144 3.01 0.0218 1.02 4.58e-4 2.03 9.16e-4 3.08 0.00139 2.15 0.00302 4.3 0.0109 6.45 0.0233 3.3 0.0183 6.61 0.0205 9.91 0.0203 2.08 0.00492 4.17 0.0107 6.25 0.0176 1.49 0.00167 1.49 0.00167 3.01 0.00337 0.914 0.00638 1.83 0.0128 2.77 0.0193 1.21 0.00572 1.21 0.00572 2.45 0.0116 1.85 0.134 1.85 0.134 2.85 1.13 0.956 12.9-0.419 24.9-9 35-7 7.67-16.3 13.2-26.8 13.9-0.718 0.0193-1.44 0.0387-2.18 0.0586-0.976 0.0503-1.95 0.101-2.96 0.152-13 0.386-25.2-2.45-35.3-11.1-9.13-9.44-13.1-21.1-13-34.1 0.848-11.8 5.53-22.8 14.2-31 16.9-13.3 39.6-15.6 58.2-4.06z" fill="#FCFDFF"/>
<path transform="translate(1123 752)" d="m0 0c3.96-0.584 6.33-0.528 10.2 0.73 5.08 4.4 8.76 10.2 12.5 15.8 1.91 2.83 3.92 5.57 5.95 8.31 0.599 0.834 1.2 1.67 1.82 2.53 1.84 2.54 3.72 5.05 5.62 7.54 0.554 0.724 1.11 1.45 1.68 2.2 1.36 1.8 1.36 1.8 3.45 2.68 0.0198-1.11 0.0396-2.22 0.0601-3.36 0.076-4.11 0.165-8.22 0.257-12.3 0.0383-1.78 0.0732-3.56 0.104-5.34 0.0456-2.56 0.104-5.11 0.164-7.67 0.0173-1.2 0.0173-1.2 0.035-2.42 0.151-5.64 0.151-5.64 2.38-7.87 2.14-0.243 2.14-0.243 4.75-0.23 0.937 0.00193 1.87 0.00387 2.84 0.00586 0.98 0.0122 1.96 0.0245 2.97 0.0371 0.984 6.45e-4 1.97 0.00129 2.98 0.00195 7.31 0.0454 7.31 0.0454 8.46 1.19 0.0951 2.59 0.126 5.15 0.114 7.73 1.46e-4 0.81 2.92e-4 1.62 4.43e-4 2.45-6.99e-4 2.69-0.00849 5.38-0.0163 8.07-0.00186 1.86-0.00329 3.72-0.00429 5.58-0.00383 4.9-0.0137 9.81-0.0247 14.7-0.0102 5-0.0148 10-0.0198 15-0.0107 9.82-0.0278 19.6-0.0488 29.5-3.06 0.135-6.12 0.234-9.19 0.312-0.864 0.0419-1.73 0.0838-2.62 0.127-4.59 0.0879-6.52 0.102-10.2-2.85-0.654-0.854-1.31-1.71-1.98-2.59-0.498-0.568-0.997-1.14-1.51-1.72-0.413-0.513-0.826-1.03-1.25-1.55-0.474-0.589-0.949-1.18-1.44-1.79-0.491-0.619-0.982-1.24-1.49-1.87-0.519-0.65-1.04-1.3-1.57-1.97-3.95-5-7.72-10.1-11.4-15.3-2.64-3.78-5.41-7.17-8.39-10.7l-1 40-10.9 0.0625c-1.13 0.0091-2.26 0.0182-3.43 0.0276-0.888 0.0025-1.78 5e-3 -2.69 0.00757-0.911 0.00524-1.82 0.0105-2.76 0.0159-2.25-0.114-2.25-0.114-4.25-1.11-0.0463-10.4-0.0818-20.8-0.104-31.2-0.0105-4.83-0.0246-9.65-0.0473-14.5-0.0217-4.66-0.0337-9.31-0.0389-14-0.0037-1.78-0.0109-3.56-0.0217-5.34-0.0144-2.49-0.0165-4.97-0.0156-7.46-0.00719-0.741-0.0144-1.48-0.0218-2.25 0.0207-5.1 0.0207-5.1 2.25-7.33 2.61-0.638 5.23-1.06 7.84-1.73z" fill="#FBFCFE"/>
<path transform="translate(957 753)" d="m0 0c0.941 0.00322 1.88 0.00645 2.85 0.00977 0.985 0.00838 1.97 0.0168 2.98 0.0254 0.993 0.00451 1.99 0.00902 3.01 0.0137 2.46 0.0118 4.91 0.0283 7.37 0.0488 4.95 9.14 8.62 18.6 12.2 28.3 1.62 4.42 3.25 8.83 4.89 13.2 0.328 0.883 0.656 1.77 0.994 2.68 3.63 9.73 7.5 19.4 11.4 29 0.465 1.14 0.929 2.28 1.41 3.46 0.407 0.992 0.815 1.98 1.23 3.01 0.864 2.35 0.864 2.35 0.864 4.35h-25l-5-10c-3.56-1.03-5.41-1.16-9-1-1.85-0.0483-1.85-0.0483-3.74-0.0977-8.53-0.636-8.53-0.636-16.3 2.1l-3 9-25 1c-1.13-3.4-0.923-3.88 0.352-7.05 0.321-0.812 0.642-1.62 0.973-2.46 0.537-1.32 0.537-1.32 1.09-2.66 0.365-0.915 0.729-1.83 1.1-2.77 1.17-2.94 2.36-5.87 3.55-8.81 0.774-1.93 1.55-3.86 2.32-5.79 1.86-4.65 3.73-9.29 5.6-13.9 5.24-13 5.24-13 10.2-26 5.75-15.6 5.75-15.6 12.6-15.6z" fill="#FCFDFF"/>
<path transform="translate(1214 753)" d="m0 0c1.01-0.0063 2.02-0.0126 3.05-0.0191 1.64 0.00607 1.64 0.00607 3.31 0.0123 1.12-0.00191 2.24-0.00383 3.39-0.0058 2.37-0.00136 4.74 0.00234 7.12 0.0107 3.63 0.0107 7.26 1.19e-4 10.9-0.0127 2.3 0.00132 4.6 0.00389 6.91 0.00781 1.09-0.00405 2.18-0.0081 3.3-0.0123 1.01 0.0063 2.03 0.0126 3.07 0.0191 0.891 0.00159 1.78 0.00318 2.7 0.00482 2.4 0.254 2.4 0.254 6.4 2.25v18c-2.23 0.0606-4.45 0.121-6.75 0.184-2.15 0.0617-4.3 0.125-6.44 0.189-1.5 0.0434-2.99 0.0851-4.49 0.125-2.15 0.0576-4.29 0.121-6.44 0.186-1.29 0.0367-2.59 0.0733-3.92 0.111-2.84-0.128-2.84-0.128-3.96 1.21-0.0718 1.52-0.0839 3.04-0.0625 4.56 0.00902 0.826 0.018 1.65 0.0273 2.5 0.0116 0.638 0.0232 1.28 0.0352 1.93 0.843 0.0251 1.69 0.0501 2.55 0.0759 3.12 0.095 6.24 0.194 9.35 0.296 1.35 0.0434 2.7 0.0851 4.05 0.125 1.94 0.0576 3.88 0.122 5.82 0.186 1.17 0.0367 2.34 0.0733 3.54 0.111 2.68 0.205 2.68 0.205 3.68 1.21 0.0865 1.42 0.107 2.84 0.0977 4.25-0.00322 0.854-0.00645 1.71-0.00977 2.59-0.0126 1.35-0.0126 1.35-0.0254 2.72-0.00451 0.902-0.00902 1.8-0.0137 2.73-0.0118 2.24-0.0283 4.47-0.0488 6.71-0.764-0.0116-1.53-0.0232-2.32-0.0352-8.58-0.0723-17.1 0.111-25.7 1.04l-1 1v9l33 1c1.15 2.3 1.12 3.58 1.1 6.13-0.00322 0.806-0.00645 1.61-0.00977 2.44-0.0126 1.26-0.0126 1.26-0.0254 2.55-0.00451 0.849-0.00902 1.7-0.0137 2.57-0.0118 2.1-0.0297 4.2-0.0488 6.3-7.54 0.0231-15.1 0.0409-22.6 0.0518-3.5 0.00523-7.01 0.0123-10.5 0.0236-4.02 0.0129-8.05 0.0178-12.1 0.0222-1.26 0.00516-2.53 0.0103-3.83 0.0156-1.16 7.55e-5 -2.32 1.51e-4 -3.52 2.29e-4 -1.54 0.00333-1.54 0.00333-3.12 0.00673-2.32-0.12-2.32-0.12-3.32-1.12-0.106-2.51-0.147-5-0.145-7.52-0.00336-0.787-0.00672-1.57-0.0102-2.38-0.00954-2.61-0.0115-5.23-0.0125-7.84-0.00321-1.81-0.00657-3.62-0.0101-5.43-6e-3 -3.8-0.00784-7.6-0.00725-11.4 1.02e-4 -4.88-0.0136-9.75-0.0308-14.6-0.0111-3.74-0.0131-7.48-0.0126-11.2-0.00118-1.8-0.00563-3.6-0.0133-5.4-0.00975-2.51-0.00694-5.02-8.95e-4 -7.54-0.00562-0.749-0.0112-1.5-0.017-2.27 0.0371-6.03 1.07-7.63 7.11-7.64z" fill="#FCFDFF"/>
<path transform="translate(507 767)" d="m0 0c6.33 5.07 10.8 12.9 12.2 20.9 0.847 10.6 1.01 21-5.47 30-6.05 6.69-14.4 10.5-23.3 11.2-11.7 0.188-20.2-2.48-29.2-10.2-7.21-7.64-8.58-16.1-8.35-26.3 0.867-9.21 5.29-17.5 12.4-23.4 12.4-8.78 28.5-10.6 41.7-2.15z" fill="#FD3431"/>
<path transform="translate(334 754)" d="m0 0c4.16 0.571 5.73 2.26 8.19 5.44 6.03 8.12 11.5 16.7 17 25.1 5.99 9.32 5.99 9.32 13 17.9h2c1.21-1.55 1.21-1.55 2.36-3.59 0.454-0.762 0.909-1.52 1.38-2.31 0.72-1.23 0.72-1.23 1.46-2.48 4.03-6.74 8.21-13.3 12.8-19.6 1.95-2.87 3.84-5.75 5.66-8.7 0.608-0.985 1.22-1.97 1.84-2.98 0.851-1.4 0.851-1.4 1.72-2.82 1.76-2.45 3.22-3.93 5.78-5.49 2.69-0.25 2.69-0.25 5 0 1.98 1.98 1.26 5.87 1.32 8.59 0.0312 1.19 0.0312 1.19 0.0631 2.41 0.0668 2.65 0.125 5.29 0.183 7.94 0.0212 0.901 0.0424 1.8 0.0642 2.73 0.485 20.8 0.476 41.6 0.373 62.3l-3.81 0.125c-0.708 0.0232-1.42 0.0464-2.14 0.0703-2.04-0.195-2.04-0.195-5.04-2.2-0.361-2.4-0.361-2.4-0.341-5.44 2.27e-4 -1.14 4.53e-4 -2.28 6.87e-4 -3.45 0.0155-1.23 0.031-2.47 0.0469-3.74 0.00424-1.26 0.00849-2.52 0.0129-3.82 0.014-3.35 0.0409-6.7 0.0741-10.1 0.0307-3.42 0.0444-6.83 0.0595-10.2 0.0296-5.99 0.0723-12 0.126-18 0.0149-1.64 0.0149-1.64 0.0202-3.27-4.18 3.67-6.85 7.76-9.76 12.5-2.89 4.62-5.98 9.1-9.05 13.6-0.576 0.846-1.15 1.69-1.74 2.56-0.545 0.795-1.09 1.59-1.65 2.41-0.49 0.716-0.979 1.43-1.48 2.17-1.31 1.8-1.31 1.8-3.31 3.8-3.39 0.396-5.34 0.39-8.31-1.36-4.77-4.37-8.35-8.73-11.7-14.3-1.64-2.7-3.33-5.3-5.1-7.91-0.544-0.803-1.09-1.61-1.65-2.43-1.09-1.6-2.19-3.21-3.29-4.81-0.502-0.743-1-1.49-1.52-2.25-0.453-0.663-0.906-1.33-1.37-2.01-1.13-1.98-1.67-3.71-2.1-5.93h-2c0.00222 0.787 0.00444 1.57 0.00673 2.38 0.02 7.4 0.0352 14.8 0.0451 22.2 0.00523 3.81 0.0123 7.61 0.0236 11.4 0.0108 3.67 0.0168 7.34 0.0194 11 0.00185 1.4 0.00547 2.81 0.0109 4.21 0.00721 1.96 0.00768 3.92 0.0078 5.88 0.00222 1.12 0.00444 2.23 0.00673 3.38-0.12 2.51-0.12 2.51-1.12 3.51-6.4-0.698-6.4-0.698-9-2-0.0463-10.4-0.0818-20.8-0.104-31.2-0.0105-4.83-0.0246-9.65-0.0473-14.5-0.0217-4.66-0.0337-9.31-0.0389-14-0.0037-1.78-0.0109-3.56-0.0217-5.34-0.0144-2.49-0.0165-4.97-0.0156-7.46-0.00719-0.741-0.0144-1.48-0.0218-2.25 0.0284-6.98 0.0284-6.98 5.06-7.76z" fill="#FCFDFF"/>
<path transform="translate(512 760)" d="m0 0c7.88 5.69 14.1 15.3 16.3 24.8 1.5 14.6 0.833 28.3-8.68 40.1-2.25 2.56-2.25 2.56-4 4h-2l-1 3c-2.33 1.35-2.33 1.35-5.25 2.62-0.954 0.425-1.91 0.851-2.89 1.29-11.1 4.2-25.9 3.46-36.9-0.527-10.4-4.9-17.3-11.7-21.7-22.3-4.16-12.4-4.65-25 1.14-36.9 6.71-11.4 15-18.7 27.9-22.6 13.4-3.29 25.5-0.741 37.2 6.63zm-51.4 12.9c-7.24 9.8-9.05 18.9-8 31 0.911 3.33 2.22 6.06 4 9l1.62 3.12c5.75 6.96 13.5 11.4 22.4 12.9 11 1.02 20.2-1.19 29-8 6.29-5.69 8.65-11.6 9.32-20 0.479-12.1-1.49-21.7-9.47-31.2-6.31-6.41-14.5-7.88-23.2-8.25-9.93 0.236-18.7 4.28-25.6 11.4z" fill="#FCFDFF"/>
<path transform="translate(701 753)" d="m0 0c0.659 0.0117 1.32 0.0234 2 0.0354 2.52 0.053 5.04 0.135 7.56 0.215 1.77 0.0471 1.77 0.0471 3.57 0.0952 3.96 0.106 7.91 0.222 11.9 0.342 1.31 0.039 2.62 0.078 3.97 0.118 1.22 0.0422 2.45 0.0844 3.71 0.128 1.11 0.0367 2.22 0.0733 3.36 0.111 2.52 0.205 2.52 0.205 3.52 1.21v8l-39 1v25c2.5 0.049 5.01 0.098 7.59 0.148 2.42 0.054 4.84 0.111 7.26 0.169 1.68 0.0383 3.37 0.0732 5.05 0.104 2.42 0.0456 4.84 0.104 7.25 0.164 0.755 0.0116 1.51 0.0231 2.29 0.035 5.34 0.151 5.34 0.151 7.56 2.38v7h-37l-1 28c2.95 0.0606 5.9 0.121 8.93 0.184 2.84 0.0617 5.69 0.125 8.53 0.189 1.98 0.0434 3.96 0.0851 5.95 0.125 2.84 0.0575 5.68 0.121 8.53 0.186 0.892 0.0167 1.78 0.0334 2.7 0.0506 6.25 0.152 6.25 0.152 7.36 1.27 0.141 2.67 0.0425 5.32 0 8-7.08 0.0253-14.2 0.0428-21.3 0.0549-2.41 0.00504-4.82 0.0119-7.23 0.0205-3.46 0.0121-6.92 0.0178-10.4 0.0222-1.08 0.00516-2.17 0.0103-3.28 0.0156-1 7.55e-5 -2 1.51e-4 -3.03 2.29e-4 -0.884 0.00222-1.77 0.00444-2.68 0.00673-2.14-0.12-2.14-0.12-4.14-1.12-0.0926-10.4-0.164-20.8-0.207-31.1-0.0209-4.82-0.0492-9.64-0.0945-14.5-0.0434-4.65-0.0674-9.3-0.0778-13.9-0.0074-1.78-0.0219-3.55-0.0434-5.33-0.029-2.48-0.033-4.97-0.0312-7.45-0.0144-0.737-0.0288-1.47-0.0436-2.23 0.0265-3.26 0.0608-4.99 2.35-7.41 2.99-1.45 5.26-1.36 8.59-1.29z" fill="#FCFDFF"/>
<path transform="translate(623,755)" d="m0 0c-0.67 3.99-1.87 7.52-3.34 11.3-0.235 0.605-0.47 1.21-0.712 1.83-0.772 1.98-1.55 3.96-2.33 5.94-0.542 1.39-1.08 2.77-1.62 4.16-1.39 3.57-2.79 7.13-4.19 10.7-1.03 2.63-2.06 5.26-3.09 7.9-4.22 10.8-8.46 21.6-12.9 32.4-0.283 0.695-0.567 1.39-0.859 2.11-1.89 4.58-1.89 4.58-3.02 5.71-7.23 0.592-7.23 0.592-10.1-1.59-2.33-2.93-3.47-5.71-4.79-9.22-0.524-1.37-1.05-2.73-1.57-4.1-0.261-0.69-0.522-1.38-0.791-2.09-1.11-2.91-2.28-5.8-3.45-8.68-7.35-18.3-14.6-36.7-21.3-55.3 2-2 2-2 4.75-2.75 3.25 0.75 3.25 0.75 4.58 2.26 5.69 9.36 9.31 19.7 13.2 29.9 0.748 1.92 1.5 3.85 2.25 5.77 0.365 0.936 0.73 1.87 1.11 2.84 1.39 3.56 2.78 7.12 4.17 10.7 0.576 1.48 1.15 2.95 1.72 4.43 0.668 1.74 1.35 3.47 2.04 5.2 0.353 0.907 0.706 1.81 1.07 2.75 0.991 2.3 0.991 2.3 4.09 2.96 0.147-0.548 0.294-1.1 0.445-1.66 1.47-5.21 3.25-10.2 5.29-15.2 2.16-5.33 4.27-10.7 6.34-16.1 0.378-0.982 0.378-0.982 0.763-1.98 1.02-2.66 2.05-5.32 3.07-7.99 1.68-4.38 3.38-8.74 5.1-13.1 0.373-0.953 0.747-1.91 1.13-2.89 0.334-0.809 0.669-1.62 1.01-2.45 0.277-0.679 0.554-1.36 0.839-2.06 1.02-1.6 1.02-1.6 4.58-3.29 3.44-0.312 3.44-0.312 6.44 1.69z" fill="#FBFCFE"/>
<path transform="translate(652 753)" d="m0 0c2.62 0.25 2.62 0.25 4.27 1.29 2.08 3.01 1.74 6.09 1.68 9.62-0.00117 0.778-0.00234 1.56-0.00354 2.36-0.00719 2.57-0.0354 5.14-0.0634 7.71-0.00813 1.78-0.0148 3.57-0.0201 5.35-0.0171 4.7-0.0514 9.4-0.0901 14.1-0.0592 7.53-0.093 15.1-0.126 22.6-0.014 2.63-0.0356 5.27-0.0583 7.9-0.01 1.61-0.0199 3.22-0.0296 4.82-0.00831 0.736-0.0166 1.47-0.0252 2.23-0.0802 3.77-0.0802 3.77 1.09 7.29-1.65-0.14-3.29-0.287-4.94-0.438-1.37-0.122-1.37-0.122-2.78-0.246-2.29-0.316-2.29-0.316-3.29-1.32-1.24-7.89-1.06-15.8-0.844-23.8 0.026-1.18 0.052-2.35 0.0787-3.56 0.0825-3.72 0.173-7.44 0.265-11.2 0.0918-3.75 0.182-7.49 0.265-11.2 0.0517-2.32 0.108-4.65 0.17-6.97 0.0233-1.05 0.0466-2.09 0.0707-3.17 0.023-0.919 0.046-1.84 0.0697-2.79 0.0306-2.49 0.0306-2.49-1.08-5.34-0.293-5.08 0.362-9.18 2-14 1-1 1-1 3.38-1.25z" fill="#FCFDFF"/>
<path transform="translate(961,784)" d="m0 0c2.75 1.37 2.87 2.77 3.95 5.62 0.354 0.935 0.709 1.87 1.07 2.83 0.365 0.984 0.73 1.97 1.11 2.98 0.559 1.47 0.559 1.47 1.13 2.97 2.75 7.31 2.75 7.31 2.75 9.59l-17-1c1.34-8.14 3.87-15.4 7-23z" fill="#000002"/>
</svg>
